<?xml version="1.0" encoding="utf-8"?>
<!-- Generator: Adobe Illustrator 22.0.0, SVG Export Plug-In . SVG Version: 6.00 Build 0)  -->
<svg version="1.1" id="Livello_1" xmlns="http://www.w3.org/2000/svg" xmlns:xlink="http://www.w3.org/1999/xlink" x="0px" y="0px"
	 viewBox="0 0 300 300" style="enable-background:new 0 0 300 300;" xml:space="preserve">
<style type="text/css">
	.st0{fill:#333333;}
</style>
<path class="st0" d="M188,136c-2.4-8.2-6.8-11.8-11.3-18.3c-2.7-3.8-6.4-10.6-6.8-16.8c-0.1-0.6-0.1-1.3,0-1.9
	c0.6-14.1,0.1-25.8-0.6-34.3c-0.4-4.5-0.9-8.2-1.2-10.8c-0.1-0.5-0.2-0.9-0.2-1.2l1.6-1.5c0.6-0.5,1-1.1,1.2-1.9
	c0.1-0.8,0-1.6-0.4-2.2l-3.6-7.6c-0.4-3-2.5-4.9-5.3-5.1l-22.2,0c-2.7,0.1-5.2,1.8-5.5,5.1l-3.6,7.6c-0.4,0.6-0.6,1.4-0.4,2.2
	c0.1,0.8,0.6,1.4,1.2,1.9l1.6,1.5c-0.5,2.8-0.8,5.7-1.1,8.6c-0.9,8.7-1.7,21.6-1,37.8l0,0.7c0,6.3-4,13.9-6.9,18
	c-4.4,6.3-8.9,10.1-11.2,17.9c-0.9,2.9-1.4,6-1.4,9.6v94.6c-0.1,2.4,0.2,4.9,0.8,7.3c2.9,12.5,10.7,15.6,22,17.3
	c4.4,0.7,9.9,1.2,16.6,1.2c10.7-0.1,18.6-1.3,23.6-2.6c2.4-0.6,4.2-1.4,5.5-2.1c7.1-4.2,10.5-13.2,10.2-21.1v-94.5
	C189.3,141.9,188.8,138.8,188,136z M139.4,42.2c0.2-0.4,0.4-0.8,0.5-1.4h20.2c0.1,0.5,0.3,1,0.5,1.4l2.7,5.7h-26.8L139.4,42.2z
	 M137.5,62c0.3-2.9,0.6-5.2,0.9-7.1l0.1-0.4h23l0.1,0.4c0.4,2.6,0.8,6.1,1.2,10.5c0.6,6.8,1,15.6,0.8,26.1h-27
	C136.5,80.5,136.2,75.1,137.5,62z M148.7,222.3c-13.8-1.2-24.7-18.6-24.7-39.9s10.9-38.7,24.7-39.9v13.3c-1.5,1.1-3.1,3.3-4,6
	c-0.7,2-1.6,5.5-0.7,9.2c-1.2-0.5-2.5-0.9-3.5-1v-13.3c0-0.9-0.7-1.6-1.6-1.6c-0.9,0-1.6,0.7-1.6,1.6v49.6c0,5.6,2.8,8.7,5.2,10.4
	c2,1.4,4.3,2.2,6.2,2.5C148.7,219.1,148.7,222.3,148.7,222.3z M148.7,215.8c-1.2-0.2-2.8-0.8-4.4-1.9c-2.6-1.8-3.9-4.4-3.9-7.8v-4.4
	c0.9,0.2,2.1,0.5,3.2,1.2c0.5,0.3,0.8,0.5,1.1,0.7c2.6,1.8,3.9,4.4,3.9,7.8C148.7,211.5,148.7,215.8,148.7,215.8z M148.7,201.5
	c-0.9-0.2-2.1-0.5-3.2-1.2c-0.5-0.3-0.8-0.5-1.1-0.7c-2.6-1.8-3.9-4.4-3.9-7.8v-4.4c1.2,0.2,2.8,0.8,4.4,1.9
	c2.6,1.8,3.9,4.4,3.9,7.8C148.7,197.2,148.7,201.5,148.7,201.5z M148.7,187.1c-1.2-0.3-2.8-0.8-4.4-1.9c-2.6-1.8-3.9-4.4-3.9-7.8
	v-4.4c1.2,0.2,2.8,0.8,4.4,1.9c1,0.7,1.7,1.5,2.4,2.4l0.3,0.5c0.8,1.4,1.2,3.1,1.2,5C148.7,182.8,148.7,187.1,148.7,187.1z
	 M148.3,173.3c-2.5-4-1.5-8.3-0.7-10.4c0.8-2.3,2-3.7,2.6-4.4c0.7,0.6,1.8,2.1,2.6,4.4c0.8,2.2,1.7,6.4-0.7,10.4l-1.9,3.1
	L148.3,173.3z M156.2,199.7c-0.3,0.2-0.6,0.4-0.9,0.6c-1.4,0.7-2.6,1.1-3.5,1.3v-4.4c0-3.4,1.3-6,3.9-7.8c1.5-1.1,3.1-1.6,4.4-1.9
	v4.4C160.1,195.2,158.8,197.8,156.2,199.7z M160.1,201.8v4.4c0,3.4-1.3,6-3.9,7.8c-1.5,1.1-3.2,1.6-4.4,1.9v-4.4
	c0-3.4,1.3-6,3.9-7.8c0.3-0.2,0.6-0.4,0.9-0.6C158,202.3,159.2,202,160.1,201.8z M156.2,185.3c-1.5,1.1-3.2,1.6-4.4,1.9v-4.4
	c0-3.4,1.3-6,3.9-7.8c1.5-1.1,3.1-1.6,4.4-1.9v4.4C160.1,180.8,158.8,183.5,156.2,185.3z M151.8,222.3v-3.2c1.9-0.3,4.2-1.1,6.2-2.5
	c2.4-1.7,5.2-4.8,5.2-10.4v-49.6c0-0.9-0.7-1.6-1.6-1.6c-0.9,0-1.6,0.7-1.6,1.6v13.3c-1.1,0.2-2.3,0.5-3.6,1.1
	c0.9-3.8,0.1-7.2-0.7-9.2c-1-2.7-2.5-4.9-4-6v-13.3c13.8,1.2,24.7,18.6,24.7,39.9C176.5,203.6,165.6,221.1,151.8,222.3z"/>
<g>
	<path class="st0" d="M150,15c36.1,0,70,14,95.5,39.5S285,113.9,285,150s-14,70-39.5,95.5S186.1,285,150,285s-70-14-95.5-39.5
		S15,186.1,15,150s14-70,39.5-95.5S113.9,15,150,15 M150,0C67.2,0,0,67.2,0,150s67.2,150,150,150s150-67.2,150-150S232.8,0,150,0
		L150,0z"/>
</g>
</svg>
