<?xml version="1.0" encoding="utf-8"?>
<!-- Generator: Adobe Illustrator 22.0.0, SVG Export Plug-In . SVG Version: 6.00 Build 0)  -->
<svg version="1.1" id="Livello_1" xmlns="http://www.w3.org/2000/svg" xmlns:xlink="http://www.w3.org/1999/xlink" x="0px" y="0px"
	 viewBox="0 0 300 300" style="enable-background:new 0 0 300 300;" xml:space="preserve">
<style type="text/css">
	.st0{fill:#333333;}
</style>
<g>
	<path class="st0" d="M150,15c36.1,0,70,14,95.5,39.5S285,113.9,285,150s-14,70-39.5,95.5S186.1,285,150,285s-70-14-95.5-39.5
		S15,186.1,15,150s14-70,39.5-95.5S113.9,15,150,15 M150,0C67.2,0,0,67.2,0,150s67.2,150,150,150s150-67.2,150-150S232.8,0,150,0
		L150,0z"/>
</g>
<path class="st0" d="M81.8,67.8c-2-2-4.4-3-7.2-3c-2.5,0-5.2,1-7.2,3c-3.7,3.7-3.7,10.1,0.3,14l150.5,150.4c2,2,4.4,3,7.2,3
	c2.5,0,5.2-1,7.2-3c3.7-3.7,3.7-10.1-0.3-14L81.8,67.8z"/>
<path class="st0" d="M232.2,81.8c2-2,3-4.4,3-7.2c0-2.5-1-5.2-3-7.2c-3.7-3.7-10.1-3.7-14,0.3L67.8,218.2c-2,2-3,4.4-3,7.2
	c0,2.5,1,5.2,3,7.2c3.7,3.7,10.1,3.7,14-0.3L232.2,81.8z"/>
</svg>
