<?xml version="1.0" encoding="utf-8"?>
<!-- Generator: Adobe Illustrator 22.0.0, SVG Export Plug-In . SVG Version: 6.00 Build 0)  -->
<svg version="1.1"
	 id="Livello_1" xmlns:cc="http://creativecommons.org/ns#" xmlns:dc="http://purl.org/dc/elements/1.1/" xmlns:inkscape="http://www.inkscape.org/namespaces/inkscape" xmlns:rdf="http://www.w3.org/1999/02/22-rdf-syntax-ns#" xmlns:sodipodi="http://sodipodi.sourceforge.net/DTD/sodipodi-0.dtd" xmlns:svg="http://www.w3.org/2000/svg"
	 xmlns="http://www.w3.org/2000/svg" xmlns:xlink="http://www.w3.org/1999/xlink" x="0px" y="0px" viewBox="0 0 300 300"
	 style="enable-background:new 0 0 300 300;" xml:space="preserve">
<style type="text/css">
	.st0{fill:#FFFFFF;}
</style>
<g transform="translate(0,-952.36218)">
	<path class="st0" d="M208.9,1013.1c-7.8,0-15.6,3-21.6,8.9L69.4,1139.9c-1,1-1.6,2.3-1.9,3.6l-6.7,40.3c-0.6,3.7,1.9,7.1,5.5,7.7
		c0.7,0.1,1.5,0.1,2.2,0l40.3-6.6c1.4-0.2,2.6-0.9,3.6-1.9l117.9-117.9c11.9-11.9,11.9-31.3,0-43.1
		C224.5,1016.1,216.7,1013.1,208.9,1013.1z M208.9,1026.4c4.3,0,8.7,1.7,12.1,5.1c6.8,6.8,6.8,17.4,0,24.1l-8.7,8.7l-24.1-24.2
		l8.6-8.6C200.1,1028.1,204.5,1026.4,208.9,1026.4z M178.6,1049.6l24.1,24.2l-94.8,94.8l-24.2-24.1L178.6,1049.6z M78.6,1158.1
		l15.6,15.6l-18.7,3.1L78.6,1158.1z"/>
</g>
<g>
	<path class="st0" d="M150,15c36.1,0,70,14,95.5,39.5S285,113.9,285,150s-14,70-39.5,95.5S186.1,285,150,285s-70-14-95.5-39.5
		S15,186.1,15,150s14-70,39.5-95.5S113.9,15,150,15 M150,0C67.2,0,0,67.2,0,150s67.2,150,150,150s150-67.2,150-150S232.8,0,150,0
		L150,0z"/>
</g>
</svg>
