<?xml version="1.0" encoding="utf-8"?>
<!-- Generator: Adobe Illustrator 22.0.0, SVG Export Plug-In . SVG Version: 6.00 Build 0)  -->
<svg version="1.1" id="Livello_1" xmlns="http://www.w3.org/2000/svg" xmlns:xlink="http://www.w3.org/1999/xlink" x="0px" y="0px"
	 viewBox="0 0 300 300" style="enable-background:new 0 0 300 300;" xml:space="preserve">
<style type="text/css">
	.st0{fill:#333333;}
</style>
<path class="st0" d="M222.2,126.7h-6.9l0-34.2c0-37.3-30.4-67.6-67.6-67.6c-37.3,0-67.6,30.4-67.6,67.6l0.1,34.2h-2.4
	c-12.8,0-23.2,10.4-23.2,23.2v101.9c0,12.8,10.4,23.2,23.2,23.2l144.5-0.1c12.8,0,23.2-10.4,23.2-23.2V149.9
	C245.5,137.1,235,126.7,222.2,126.7z M105.1,126.8L105,92.5c0-23.5,19.1-42.7,42.7-42.7c23.5,0,42.7,19.2,42.7,42.7l0.1,34.2
	L105.1,126.8z"/>
</svg>
