<?xml version="1.0" encoding="utf-8"?>
<!-- Generator: Adobe Illustrator 22.0.0, SVG Export Plug-In . SVG Version: 6.00 Build 0)  -->
<svg version="1.1" id="Livello_1" xmlns="http://www.w3.org/2000/svg" xmlns:xlink="http://www.w3.org/1999/xlink" x="0px" y="0px"
	 viewBox="0 0 300 300" style="enable-background:new 0 0 300 300;" xml:space="preserve">
<style type="text/css">
	.st0{fill:#333333;}
</style>
<g>
	<path class="st0" d="M150,15c36.1,0,70,14,95.5,39.5S285,113.9,285,150s-14,70-39.5,95.5S186.1,285,150,285s-70-14-95.5-39.5
		S15,186.1,15,150s14-70,39.5-95.5S113.9,15,150,15 M150,0C67.2,0,0,67.2,0,150s67.2,150,150,150s150-67.2,150-150S232.8,0,150,0
		L150,0z"/>
</g>
<path class="st0" d="M237.1,223l-44.2-44.2c22.2-28.9,20-70.6-6.7-97C171.7,67.2,152.9,60,133.9,60s-37.8,7.2-52.3,21.7
	c-28.9,28.9-28.9,75.8,0,104.7c14.6,14.6,33.3,21.7,52.3,21.7c15.8,0,31.6-4.9,44.7-15.1l44.4,44c2,2,4.4,3,7.2,3c2.5,0,5.2-1,7.2-3
	C241.1,233.3,241.1,226.9,237.1,223z M134.2,188.1c-14.6,0-27.9-5.7-38.3-15.8c-21-21-21-55.3,0-76.5C106,85.7,119.6,80,134.2,80
	c14.6,0,27.9,5.7,38.3,15.8c10.4,10.1,15.8,23.7,15.8,38.3s-5.7,27.9-15.8,38.3S148.5,188.1,134.2,188.1z"/>
</svg>
